HIERARCHY
ROOT root
{
	OFFSET	0	13.1	24.9
	CHANNELS 6  Xposition Yposition Zposition Xrotation Yrotation Zrotation
	JOINT spine_1
	{
		OFFSET	0	9.99999	0
		CHANNELS 3  Xrotation Yrotation Zrotation
		JOINT spine_2
		{
			OFFSET	0	112	-10
			CHANNELS 3  Xrotation Yrotation Zrotation
			JOINT spine_3
			{
				OFFSET	0	206.5	19.3
				CHANNELS 3  Xrotation Yrotation Zrotation
				JOINT spine_4
				{
					OFFSET	0	110.4	14.6
					CHANNELS 3  Xrotation Yrotation Zrotation
					JOINT neck_1
					{
						OFFSET	0	71.8	-50.3
						CHANNELS 3  Xrotation Yrotation Zrotation
						JOINT neck_2
						{
							OFFSET	0	86.2	-25.8
							CHANNELS 3  Xrotation Yrotation Zrotation
							JOINT head_ee
							{
								OFFSET	0	179.8	-8.7
								CHANNELS 3  Xrotation Yrotation Zrotation
								End Site
								{
									OFFSET	1	0	0
								}
							}
						}
					}
					JOINT left_clavicle
					{
						OFFSET	-43.2	22.4	-70.8
						CHANNELS 3  Xrotation Yrotation Zrotation
						JOINT left_shoulder
						{
							OFFSET	-93.9	-5.79999	48.7
							CHANNELS 3  Xrotation Yrotation Zrotation
							JOINT left_elbow
							{
								OFFSET	-291.4	-30.8	15.2
								CHANNELS 3  Xrotation Yrotation Zrotation
								JOINT left_lowarm_twist
								{
									OFFSET	-110.7	-3.89999	13.6
									CHANNELS 3  Xrotation Yrotation Zrotation
									JOINT left_hand
									{
										OFFSET	-110.7	-3.89999	13.6
										CHANNELS 3  Xrotation Yrotation Zrotation
										JOINT left_ee
										{
											OFFSET	-80.8	-5.10001	12.1
											CHANNELS 3  Xrotation Yrotation Zrotation
											End Site
											{
												OFFSET	1	0	0
											}
										}
									}
								}
							}
						}
					}
					JOINT right_clavicle
					{
						OFFSET	43.2	22.4	-70.8
						CHANNELS 3  Xrotation Yrotation Zrotation
						JOINT right_shoulder
						{
							OFFSET	93.9	-5.79999	48.7
							CHANNELS 3  Xrotation Yrotation Zrotation
							JOINT right_elbow
							{
								OFFSET	291.4	-30.8	15.2
								CHANNELS 3  Xrotation Yrotation Zrotation
								JOINT right_lowarm_twist
								{
									OFFSET	110.7	-3.89999	13.6
									CHANNELS 3  Xrotation Yrotation Zrotation
									JOINT right_hand
									{
										OFFSET	110.7	-3.89999	13.6
										CHANNELS 3  Xrotation Yrotation Zrotation
										JOINT right_ee
										{
											OFFSET	80.8	-5.10001	12.1
											CHANNELS 3  Xrotation Yrotation Zrotation
											End Site
											{
												OFFSET	1	0	0
											}
										}
									}
								}
							}
						}
					}
				}
			}
		}
	}
	JOINT left_hip
	{
		OFFSET	-82.8	-127.5	0.300001
		CHANNELS 3  Xrotation Yrotation Zrotation
		JOINT left_knee
		{
			OFFSET	-28.2	-396.7	2.2
			CHANNELS 3  Xrotation Yrotation Zrotation
			JOINT left_ankle
			{
				OFFSET	-11.7	-411.3	35.4
				CHANNELS 3  Xrotation Yrotation Zrotation
				JOINT left_toes
				{
					OFFSET	0	-60	-88.6
					CHANNELS 3  Xrotation Yrotation Zrotation
					JOINT left_foot_ee
					{
						OFFSET	-22.5	-16.5	-42.2
						CHANNELS 3  Xrotation Yrotation Zrotation
						End Site
						{
							OFFSET	1	0	0
						}
					}
				}
			}
		}
	}
	JOINT right_hip
	{
		OFFSET	82.8	-127.5	0.300001
		CHANNELS 3  Xrotation Yrotation Zrotation
		JOINT right_knee
		{
			OFFSET	28.2	-396.7	2.2
			CHANNELS 3  Xrotation Yrotation Zrotation
			JOINT right_ankle
			{
				OFFSET	11.7	-411.3	35.4
				CHANNELS 3  Xrotation Yrotation Zrotation
				JOINT right_toes
				{
					OFFSET	0	-60	-88.6
					CHANNELS 3  Xrotation Yrotation Zrotation
					JOINT right_foot_ee
					{
						OFFSET	22.5	-16.5	-42.2
						CHANNELS 3  Xrotation Yrotation Zrotation
						End Site
						{
							OFFSET	1	0	0
						}
					}
				}
			}
		}
	}
}
MOTION
Frames: 9
Frame Time: 0.02
3057.15 763.096 -804.167 -10.9036 42.5172 0.959451 4.81893 0.165801 1.27157 4.81982 0.0845586 1.27954 4.82099 -0.0789788 1.2799 4.81872 0.124132 1.27631 -19.2937 17.7275 7.19425 -20.5184 30.4615 14.3098 -0.0 0.0 -0.0 3.46893 14.2431 7.31333 -21.2461 -27.4337 52.0164 0.656556 -18.0166 0.104087 6.27534 0.178455 -0.781327 -1.37769 -3.71318 -10.9071 -0.0 0.0 -0.0 10.3533 11.2779 -20.5905 -35.8373 20.2497 -55.3703 0.463777 12.9389 -0.0525905 10.9003 -0.254683 1.36703 1.04226 -8.10622 -10.1732 0.0 0.0 0.0 29.5337 -32.6841 24.0924 -34.155 -0.137375 5.16307 18.1621 27.2655 -2.66003 0.950829 -0.0 -0.0 -0.0 0.0 -0.0 15.1191 -24.5561 16.4599 6.33289 0.312086 0.920895 36.6664 -26.4738 4.88217 -0.71622 0.0 0.0 0.0 0.0 0.0 
3030.93 764.306 -805.115 -9.97427 44.2869 -0.83904 4.53939 -0.0423062 1.36459 4.54042 -0.129045 1.35914 4.53661 -0.307642 1.33014 4.53416 -0.0937302 1.36203 -19.534 17.2872 6.33992 -20.788 30.078 13.4151 -0.0 0.0 -0.0 3.68278 13.8354 7.65347 -20.4831 -27.349 51.3248 0.790476 -21.3842 0.149251 6.45393 0.182275 -0.80382 -1.41234 -4.33872 -11.4238 -0.0 0.0 -0.0 9.69826 9.69463 -19.1793 -36.9332 19.472 -55.1936 0.450884 12.5908 -0.0497418 11.0036 -0.255846 1.38017 0.946144 -8.78603 -9.80012 0.0 0.0 0.0 29.1038 -32.3769 27.1934 -33.4955 -0.105613 5.06686 17.5529 26.8237 -2.56974 0.844517 -0.0 -0.0 -0.0 0.0 -0.0 20.7246 -23.0935 15.7391 5.78527 0.281088 0.842657 35.9464 -25.6433 4.78076 -1.25961 0.0 0.0 0.0 0.0 0.0 
3011.25 762.465 -807.416 -10.4177 44.1591 -1.00732 4.43515 -0.0819316 1.3953 4.43622 -0.170544 1.38726 4.43134 -0.354993 1.35188 4.42882 -0.137056 1.39097 -20.4515 16.9942 5.89133 -21.8069 29.848 13.1726 -0.0 0.0 -0.0 3.84194 14.7143 7.93251 -19.6019 -26.9737 49.6577 0.931271 -24.7647 0.204456 6.41157 0.181375 -0.798484 -1.50095 -4.75957 -12.2214 -0.0 0.0 -0.0 9.16318 9.63862 -18.02 -37.4033 19.4828 -55.5478 0.550582 15.2561 -0.0737381 11.1485 -0.257435 1.39861 1.01546 -8.71047 -10.2263 0.0 0.0 0.0 29.3814 -32.5225 28.5358 -32.6689 -0.067378 4.9458 17.7967 27.5879 -2.61555 0.926095 -0.0 -0.0 -0.0 0.0 -0.0 22.8378 -22.6623 15.7875 4.97518 0.236612 0.726396 35.3052 -24.5638 4.68189 -1.56078 0.0 0.0 0.0 0.0 0.0 
3000.41 763.225 -803.525 -12.4766 46.4329 0.638009 4.59246 -0.117318 1.47586 4.59365 -0.210983 1.46541 4.58738 -0.401683 1.42499 4.58459 -0.171617 1.47053 -21.4697 16.558 5.77002 -22.8695 29.175 13.1638 -0.0 0.0 -0.0 3.99279 14.6749 8.17742 -16.9251 -27.3409 49.0497 1.04092 -27.2768 0.25257 6.61534 0.185667 -0.82416 -1.69387 -5.10514 -13.7103 -0.0 0.0 -0.0 9.08651 8.35041 -17.8745 -38.3809 18.8338 -55.3126 0.503819 14.0136 -0.0619225 11.9453 -0.265343 1.50008 0.933787 -9.88029 -10.1335 0.0 0.0 0.0 28.5268 -32.6229 27.6265 -29.2194 0.0731715 4.43519 17.6747 27.9169 -2.60437 0.970384 -0.0 -0.0 -0.0 0.0 -0.0 25.9884 -21.775 16.3323 1.89684 0.0827456 0.279293 36.231 -24.788 4.78496 -1.66821 0.0 0.0 0.0 0.0 0.0 
2988.5 763.495 -799.414 -13.4849 47.0886 0.696059 4.75113 0.0213963 1.58256 4.75252 -0.0793365 1.58071 4.74924 -0.281894 1.5574 4.74586 -0.0324255 1.58237 -21.1453 16.3698 4.39843 -22.5888 29.4325 11.7441 -0.0 0.0 -0.0 4.83236 14.9853 9.54702 -16.2018 -27.1285 46.9446 1.17867 -30.2787 0.31891 6.64411 0.186265 -0.827787 -1.89197 -5.19889 -15.1314 -0.0 0.0 -0.0 8.86013 7.41467 -17.4005 -37.6303 17.1326 -55.6477 0.443828 12.3999 -0.048215 13.1033 -0.274318 1.64772 0.918488 -10.0499 -10.0977 0.0 0.0 0.0 27.8739 -36.0546 28.6061 -23.0897 0.246168 3.51082 16.9907 26.8184 -2.49266 1.07537 -0.0 -0.0 -0.0 0.0 -0.0 31.0936 -21.675 17.1518 -1.31375 -0.0518605 -0.194938 36.0681 -25.1813 4.7796 -1.84118 0.0 0.0 0.0 0.0 0.0 
2980.59 764.562 -794.496 -15.5287 48.8129 2.5812 4.71786 -0.152192 1.6132 4.71927 -0.254522 1.60025 4.71108 -0.459238 1.55394 4.70777 -0.208092 1.60695 -19.5251 16.6531 3.79577 -20.8778 30.1383 10.8357 -0.0 0.0 -0.0 5.48157 13.0012 10.6502 -15.7672 -25.5378 45.8401 1.35643 -33.8968 0.413385 6.66952 0.186793 -0.83099 -1.95055 -5.42956 -15.6456 -0.0 0.0 -0.0 8.62512 6.86808 -16.9065 -38.5612 15.4456 -55.49 0.592721 16.3633 -0.0852193 15.403 -0.283287 1.94129 1.06708 -7.7745 -10.2106 0.0 0.0 0.0 24.6393 -34.6649 26.6908 -16.3479 0.321245 2.47969 15.9111 27.5416 -2.35423 0.590479 -0.0 -0.0 -0.0 0.0 -0.0 35.9841 -18.0071 18.0829 -6.29531 -0.207535 -0.943371 34.7645 -24.3508 4.61888 -1.82218 0.0 0.0 0.0 0.0 0.0 
2971.35 761.764 -796.988 -15.3791 50.2581 3.18377 4.70676 -0.31001 1.55389 4.70801 -0.408249 1.53103 4.69616 -0.603148 1.46525 4.69335 -0.364199 1.5421 -21.6761 16.1782 5.05925 -23.0823 28.7963 12.3924 -0.0 0.0 -0.0 5.19114 14.6466 10.1387 -15.2931 -29.3934 44.7341 1.44579 -35.6082 0.464328 6.8215 0.189916 -0.850153 -1.91084 -5.38827 -15.3491 -0.0 0.0 -0.0 8.45363 7.28803 -16.5386 -37.2915 14.9753 -57.1274 0.481832 13.4247 -0.0567077 13.5722 -0.277103 1.70754 0.979348 -9.63431 -10.3385 0.0 0.0 0.0 23.9534 -34.6007 26.6625 -17.5933 0.316523 2.6707 17.3252 27.2515 -2.54538 0.983843 -0.0 -0.0 -0.0 0.0 -0.0 37.0702 -18.7718 16.8297 -5.37831 -0.183779 -0.80465 33.8066 -25.0196 4.53437 -1.77644 0.0 0.0 0.0 0.0 0.0 
2957.74 755.101 -800.168 -15.7448 51.805 3.75359 4.61304 -0.436146 1.64277 4.61438 -0.539782 1.6117 4.59822 -0.746693 1.52691 4.59531 -0.49621 1.62564 -22.4081 16.0423 5.12203 -23.8641 28.567 12.6041 -0.0 0.0 -0.0 5.52233 13.0453 10.7183 -13.7626 -30.2185 43.5369 1.47976 -36.2402 0.484259 6.70216 0.187468 -0.835105 -1.95396 -5.7533 -15.8163 -0.0 0.0 -0.0 8.39835 6.85527 -16.427 -37.2072 14.4364 -57.2918 0.437128 12.2184 -0.0467868 13.0666 -0.274079 1.64304 0.885635 -10.5773 -10.0823 0.0 0.0 0.0 23.6245 -34.4535 27.4651 -18.604 0.309639 2.82563 17.5964 27.4388 -2.58562 0.986295 -0.0 -0.0 -0.0 0.0 -0.0 40.5116 -17.4644 16.3311 -6.22545 -0.205803 -0.932789 33.2988 -24.2473 4.45859 -2.78632 0.0 0.0 0.0 0.0 0.0 
2945.35 752.627 -802.96 -17.2293 51.9568 5.36126 4.65042 -0.261875 1.5496 4.65169 -0.359938 1.52981 4.64114 -0.556484 1.46977 4.63827 -0.317406 1.53919 -20.7999 16.0324 3.95307 -22.1666 28.9697 11.0558 -0.0 0.0 -0.0 5.93686 12.3768 11.4384 -12.7149 -30.5706 42.8475 1.559 -37.6757 0.531907 6.69795 0.187381 -0.834574 -1.98396 -5.81588 -16.055 -0.0 0.0 -0.0 8.38507 6.30622 -16.4047 -36.8559 13.352 -57.9757 0.444469 12.4173 -0.0483527 13.4005 -0.27614 1.68563 0.875423 -10.6549 -10.0451 0.0 0.0 0.0 21.1157 -34.9216 26.352 -13.2145 0.314759 1.99904 17.7441 28.0217 -2.61571 0.965932 -0.0 -0.0 -0.0 0.0 -0.0 42.7969 -16.5429 15.2409 -7.15871 -0.227869 -1.07431 33.5977 -23.9747 4.484 -2.85022 0.0 0.0 0.0 0.0 0.0 
